<?xml version="1.0" standalone="no"?>
<!DOCTYPE svg PUBLIC "-//W3C//DTD SVG 20010904//EN"
 "http://www.w3.org/TR/2001/REC-SVG-20010904/DTD/svg10.dtd">
<svg version="1.0" xmlns="http://www.w3.org/2000/svg"
 width="1384.000000pt" height="1384.000000pt" viewBox="0 0 1384.000000 1384.000000"
 preserveAspectRatio="xMidYMid meet">
<metadata>
Created by potrace 1.11, written by Peter Selinger 2001-2013
</metadata>
<g transform="translate(0.000000,1384.000000) scale(0.100000,-0.100000)"
fill="#000000" stroke="none">
<path d="M10720 13815 c-57 -13 -171 -54 -180 -64 -3 -3 -18 -13 -34 -22 -60
-34 -145 -117 -195 -190 -28 -42 -51 -79 -51 -82 0 -3 -5 -18 -12 -34 -6 -15
-12 -30 -13 -33 -1 -3 -7 -23 -14 -45 -12 -40 -24 -130 -25 -191 0 -29 -5 -33
-51 -49 -27 -10 -83 -33 -123 -51 -40 -18 -76 -34 -80 -34 -4 -1 -25 -10 -47
-20 -22 -10 -65 -29 -95 -42 -70 -31 -293 -141 -300 -148 -3 -3 -30 -18 -60
-32 -30 -15 -66 -34 -80 -43 -14 -8 -95 -56 -180 -106 -251 -149 -571 -367
-721 -493 -21 -17 -54 -44 -74 -61 -67 -54 -155 -128 -196 -165 -199 -179
-362 -339 -504 -494 -49 -54 -95 -104 -101 -110 -18 -20 -168 -201 -194 -235
-14 -18 -30 -38 -36 -45 -19 -20 -137 -177 -189 -251 -27 -38 -53 -74 -58 -80
-26 -33 -157 -238 -157 -245 0 -6 -4 -10 -10 -10 -5 0 -10 -4 -10 -9 0 -12
-63 -115 -72 -119 -5 -2 -8 -8 -8 -13 0 -6 -24 -51 -53 -102 -28 -51 -59 -105
-67 -122 -8 -16 -17 -32 -20 -35 -10 -10 -150 -298 -150 -309 0 -6 -4 -11 -10
-11 -5 0 -10 -6 -10 -14 0 -8 -18 -52 -39 -98 -21 -45 -64 -148 -96 -228 -31
-80 -60 -154 -65 -165 -4 -11 -18 -49 -30 -85 -12 -36 -24 -72 -27 -80 -3 -8
-7 -19 -9 -25 -1 -5 -19 -61 -39 -124 -20 -62 -39 -121 -40 -130 -2 -9 -4 -16
-6 -16 -1 0 -3 -9 -5 -20 -2 -11 -22 -90 -45 -175 -22 -85 -42 -164 -45 -175
-38 -186 -44 -217 -58 -290 -9 -49 -24 -142 -31 -191 -3 -21 -8 -52 -10 -69
-4 -27 -10 -74 -20 -155 -2 -14 -6 -59 -10 -100 -4 -41 -8 -86 -10 -100 -25
-162 -25 -917 -1 -1120 3 -25 8 -76 11 -115 3 -38 8 -81 10 -95 3 -14 8 -50
11 -80 3 -30 7 -66 10 -80 12 -79 17 -113 30 -190 21 -127 24 -139 40 -215 8
-38 16 -80 19 -93 2 -13 7 -33 11 -44 3 -11 7 -30 9 -41 2 -12 6 -32 9 -44 3
-13 8 -32 11 -43 3 -11 7 -28 9 -37 3 -10 15 -54 26 -98 12 -44 23 -84 24 -90
1 -5 10 -37 20 -70 10 -33 18 -62 18 -65 0 -3 4 -13 10 -23 5 -10 11 -28 13
-40 3 -12 9 -31 13 -42 5 -11 19 -51 31 -90 12 -38 28 -86 36 -105 7 -19 32
-84 55 -145 23 -60 48 -123 55 -140 12 -29 27 -65 30 -75 1 -3 13 -30 27 -60
27 -57 76 -167 78 -175 8 -30 206 -397 292 -544 16 -25 36 -61 45 -78 9 -18
20 -33 25 -33 4 0 8 -4 8 -9 0 -9 60 -105 80 -128 5 -7 10 -15 10 -18 0 -5 21
-36 119 -175 46 -66 97 -135 131 -180 11 -14 33 -43 50 -65 44 -57 87 -110
150 -185 30 -36 64 -76 75 -89 133 -161 448 -479 630 -636 39 -33 80 -69 92
-80 12 -11 37 -31 54 -45 18 -14 39 -32 48 -40 9 -8 32 -26 51 -40 19 -13 42
-31 50 -40 8 -8 34 -28 58 -44 23 -16 42 -33 42 -37 0 -5 4 -9 10 -9 5 0 44
-26 87 -58 85 -64 319 -222 328 -222 3 0 11 -5 18 -10 21 -19 117 -79 117 -74
0 3 15 -6 33 -20 19 -15 39 -26 45 -26 7 0 12 -4 12 -9 0 -5 8 -11 18 -14 9
-3 53 -26 97 -51 93 -53 394 -206 445 -226 19 -8 37 -17 40 -20 3 -4 17 -10
33 -14 22 -5 27 -3 27 13 0 30 39 149 71 215 16 33 29 63 29 68 0 5 -17 16
-37 25 -46 18 -374 182 -388 192 -5 5 -37 23 -70 41 -93 51 -108 60 -140 80
-16 11 -37 23 -45 27 -8 3 -48 28 -88 55 -41 26 -78 48 -83 48 -5 0 -9 4 -9 9
0 5 -14 14 -30 21 -16 7 -30 16 -30 21 0 5 -5 9 -10 9 -6 0 -30 14 -53 30 -76
55 -382 282 -397 295 -8 8 -28 25 -43 39 -15 14 -30 26 -32 26 -2 0 -17 12
-33 27 -17 16 -53 48 -82 73 -111 94 -148 129 -279 260 -158 157 -278 287
-376 404 -22 27 -48 58 -59 70 -10 11 -30 37 -45 56 -14 19 -31 40 -37 47 -6
6 -44 56 -85 110 -41 54 -76 100 -79 103 -3 3 -9 12 -15 22 -5 9 -51 76 -101
150 -105 153 -194 295 -194 309 0 5 -4 9 -10 9 -5 0 -10 9 -10 19 0 11 -4 21
-9 23 -4 2 -37 57 -73 123 -159 294 -258 507 -368 795 -18 47 -36 94 -41 105
-39 94 -189 599 -189 636 0 10 -4 20 -9 24 -6 3 -9 13 -9 23 1 9 -10 69 -25
132 -14 63 -29 135 -32 160 -4 24 -8 47 -10 50 -2 3 -6 26 -10 50 -3 25 -10
70 -15 100 -11 68 -18 115 -35 255 -5 39 -14 125 -20 200 -24 260 -24 753 0
1020 2 28 7 82 10 120 3 39 8 84 10 100 3 17 7 46 9 65 10 83 18 138 26 185 5
28 12 66 14 85 14 87 56 298 82 403 2 9 6 26 9 38 2 11 7 29 10 39 3 10 7 27
9 37 2 10 11 45 20 78 10 33 19 67 21 75 2 8 4 15 5 15 1 0 3 7 5 15 7 30 66
221 79 258 8 20 17 46 22 57 4 11 8 27 10 35 2 8 30 83 63 165 88 224 95 240
101 245 3 3 6 10 7 15 1 6 18 46 39 90 21 44 38 82 38 85 1 3 31 64 68 135 96
188 112 219 118 225 3 3 16 25 29 50 79 148 266 437 404 623 37 51 76 103 85
116 9 13 22 28 27 35 6 6 37 44 69 85 120 150 259 303 441 486 198 198 221
219 455 416 89 75 282 222 360 274 25 16 47 33 50 36 3 4 46 33 95 65 50 32
92 60 95 63 3 3 15 12 28 19 12 6 32 18 45 25 12 6 24 15 27 18 26 30 668 369
699 369 6 0 11 4 11 10 0 5 3 9 8 8 4 -2 52 17 107 41 95 41 129 55 185 78 22
9 28 5 63 -39 33 -41 71 -76 162 -146 18 -14 109 -54 155 -68 140 -44 305 -37
438 18 15 6 34 12 42 14 8 2 16 8 18 13 2 6 8 11 14 11 6 0 26 11 44 25 18 14
36 25 39 25 4 0 34 29 69 65 63 66 141 195 158 264 5 20 12 47 16 61 4 14 6
77 6 140 -1 95 -6 129 -28 196 -67 207 -231 365 -446 429 -69 21 -238 26 -310
10z m239 -419 c155 -81 186 -287 59 -401 -42 -38 -76 -57 -88 -50 -6 4 -10 2
-10 -4 0 -10 -5 -11 -78 -11 -80 0 -167 56 -210 134 -21 39 -25 197 -4 204 6
2 10 7 7 12 -2 4 7 20 20 36 14 16 25 32 25 35 0 7 75 49 108 60 39 12 134 4
171 -15z"/>
<path d="M8867 13584 c-1 -1 -72 -5 -157 -9 -85 -3 -173 -8 -195 -10 -133 -13
-173 -17 -200 -21 -16 -2 -57 -6 -90 -10 -75 -7 -110 -11 -110 -14 0 -1 -13
-3 -30 -4 -16 -2 -48 -6 -70 -10 -22 -4 -55 -9 -74 -11 -18 -2 -40 -6 -50 -9
-9 -3 -34 -8 -56 -11 -23 -3 -52 -8 -65 -10 -14 -3 -41 -8 -60 -11 -46 -8 -65
-12 -65 -14 0 -2 -11 -4 -55 -13 -22 -5 -83 -19 -142 -33 -10 -2 -26 -6 -35
-8 -113 -27 -413 -113 -463 -133 -8 -4 -17 -7 -20 -8 -45 -11 -414 -147 -420
-154 -3 -3 -11 -7 -18 -9 -7 -1 -34 -12 -60 -23 -26 -12 -56 -25 -67 -29 -11
-4 -38 -16 -60 -26 -22 -10 -42 -19 -45 -19 -26 -4 -471 -234 -609 -315 -107
-63 -128 -76 -139 -87 -8 -7 -18 -11 -23 -8 -5 4 -9 1 -9 -4 0 -6 -5 -11 -10
-11 -6 0 -20 -8 -31 -18 -10 -11 -32 -25 -47 -33 -15 -8 -31 -17 -37 -22 -39
-30 -128 -87 -135 -87 -6 0 -10 -3 -10 -7 0 -5 -21 -21 -48 -38 -45 -28 -56
-36 -85 -60 -38 -32 -96 -75 -100 -75 -3 0 -16 -9 -29 -20 -12 -11 -63 -52
-112 -91 -49 -39 -94 -76 -101 -82 -6 -7 -26 -23 -44 -37 -106 -82 -591 -546
-591 -566 0 -3 -10 -15 -23 -27 -37 -36 -158 -175 -241 -277 -42 -52 -84 -103
-92 -113 -8 -10 -27 -34 -42 -55 -15 -21 -33 -44 -40 -52 -7 -8 -38 -51 -69
-95 -32 -44 -60 -82 -63 -85 -3 -3 -25 -36 -50 -74 -24 -38 -49 -74 -56 -80
-6 -7 -15 -22 -18 -34 -4 -12 -12 -22 -17 -22 -5 0 -9 -7 -9 -15 0 -8 -4 -15
-10 -15 -5 0 -10 -5 -10 -12 0 -6 -11 -26 -25 -44 -14 -18 -25 -35 -25 -38 0
-3 -27 -49 -59 -103 -73 -121 -112 -192 -193 -353 -35 -69 -67 -128 -73 -132
-5 -4 -7 -8 -3 -8 3 0 -8 -28 -25 -62 -17 -35 -31 -65 -32 -68 0 -3 -11 -27
-24 -55 -64 -142 -174 -420 -174 -441 0 -8 -3 -14 -7 -14 -4 0 -7 -6 -7 -12
-1 -7 -18 -60 -38 -118 -20 -58 -38 -112 -40 -120 -2 -8 -11 -37 -20 -65 -9
-27 -25 -81 -36 -120 -18 -63 -23 -84 -34 -135 -2 -8 -4 -15 -5 -15 -2 0 -6
-18 -15 -64 -3 -19 -8 -38 -11 -43 -3 -5 -8 -21 -10 -36 -3 -15 -10 -47 -15
-72 -13 -55 -18 -78 -24 -110 -3 -14 -7 -36 -10 -50 -7 -30 -14 -66 -19 -100
-2 -14 -11 -70 -20 -125 -10 -55 -19 -113 -21 -130 -1 -16 -5 -48 -8 -70 -10
-65 -16 -121 -32 -295 -26 -282 -26 -860 0 -1100 3 -25 7 -72 10 -105 5 -67 9
-105 20 -185 4 -30 9 -66 10 -80 4 -35 24 -153 40 -245 3 -16 8 -41 10 -55 9
-58 17 -101 41 -205 13 -60 26 -119 29 -130 2 -11 8 -35 14 -53 5 -18 10 -35
10 -37 1 -3 1 -6 2 -7 0 -2 2 -12 4 -23 3 -16 74 -263 89 -310 2 -5 7 -25 11
-43 4 -18 12 -35 16 -38 5 -3 9 -12 9 -21 0 -19 92 -279 131 -368 4 -11 20
-49 35 -85 14 -36 35 -85 46 -110 11 -25 27 -61 35 -80 104 -238 339 -670 454
-836 16 -23 25 -44 22 -48 -3 -3 -2 -6 4 -6 6 0 27 -28 48 -63 21 -34 41 -64
44 -67 3 -3 26 -34 51 -70 37 -54 143 -198 172 -235 119 -149 216 -266 263
-320 33 -37 74 -83 90 -102 57 -65 351 -358 434 -433 46 -41 95 -86 110 -100
15 -14 47 -41 71 -60 25 -19 54 -44 66 -55 11 -11 35 -31 53 -45 18 -14 38
-30 44 -36 7 -5 50 -39 97 -74 47 -36 91 -70 98 -77 7 -7 17 -13 22 -13 5 0
16 -7 25 -16 18 -18 284 -204 292 -204 2 0 25 -15 51 -32 26 -18 50 -32 53
-31 4 1 15 -7 24 -17 10 -11 21 -20 25 -20 4 0 47 -24 96 -53 94 -57 216 -124
299 -167 28 -14 52 -28 53 -32 2 -5 8 -8 14 -8 5 0 67 -27 136 -61 132 -63
196 -93 247 -113 17 -7 46 -19 65 -28 66 -29 85 -37 152 -62 88 -34 327 -118
408 -144 101 -31 358 -105 410 -117 3 0 23 -5 45 -10 22 -5 42 -9 45 -10 16
-5 59 -15 80 -19 14 -3 36 -8 50 -11 14 -3 36 -7 50 -9 14 -2 36 -7 50 -10 14
-3 39 -8 55 -11 74 -14 152 -28 170 -30 11 -2 40 -7 65 -10 25 -4 56 -9 70
-10 14 -2 25 -4 25 -5 0 -1 16 -3 35 -5 19 -2 35 -4 35 -5 0 -1 84 -10 133
-13 12 0 22 -3 22 -7 0 -3 28 -6 63 -6 34 -1 94 -4 132 -8 281 -25 767 -25
1025 -1 25 3 75 7 112 9 36 3 88 8 115 12 26 4 62 8 78 9 17 1 53 6 80 10 28
5 62 9 78 9 15 1 27 5 27 9 0 5 4 6 9 3 5 -4 44 1 88 9 118 23 118 23 158 -41
71 -110 179 -197 315 -252 133 -53 328 -52 471 4 108 42 237 146 298 239 14
22 28 42 32 45 5 4 20 37 23 50 1 3 7 14 13 25 6 11 11 23 12 28 1 4 2 9 2 12
1 3 3 10 4 15 1 6 3 11 5 13 1 1 4 11 6 22 25 106 25 247 -1 330 -10 33 -19
62 -20 65 -14 52 -79 156 -139 218 -41 44 -147 122 -164 122 -5 0 -15 7 -22
15 -6 8 -15 14 -18 13 -7 -1 -26 5 -67 22 -83 34 -258 39 -365 9 -82 -22 -198
-77 -238 -112 -47 -42 -132 -130 -132 -138 0 -4 -6 -14 -14 -21 -46 -47 -112
-240 -108 -320 0 -9 -7 -19 -16 -22 -24 -7 -151 -28 -192 -31 -19 -2 -50 -6
-67 -9 -69 -12 -123 -19 -263 -31 -36 -3 -83 -8 -105 -10 -226 -22 -779 -23
-1000 -1 -16 2 -64 6 -105 10 -41 4 -91 9 -110 11 -19 3 -57 7 -85 10 -27 4
-63 9 -80 11 -16 3 -48 8 -70 10 -22 3 -47 6 -55 8 -8 1 -37 6 -65 10 -77 12
-81 13 -220 41 -71 14 -168 35 -214 47 -46 11 -89 21 -95 22 -6 2 -31 8 -56
15 -25 8 -52 15 -60 16 -8 2 -15 4 -15 6 0 1 -9 3 -20 4 -11 2 -42 10 -69 20
-26 9 -56 18 -65 20 -51 10 -393 131 -523 185 -82 35 -103 43 -113 46 -25 6
-263 117 -380 178 -161 82 -257 135 -370 203 -11 7 -29 16 -40 22 -11 5 -51
30 -89 55 -38 25 -73 46 -77 46 -5 0 -9 5 -9 10 0 6 -5 10 -11 10 -12 0 -133
80 -137 92 -2 4 -8 8 -13 8 -6 0 -36 19 -67 42 -80 59 -165 122 -177 131 -37
28 -144 112 -160 125 -37 30 -140 117 -151 127 -6 5 -42 37 -79 70 -38 33 -90
80 -116 105 -26 25 -62 59 -80 76 -100 94 -325 337 -439 474 -101 121 -117
141 -185 230 -36 47 -69 90 -73 95 -8 10 -82 117 -165 237 -26 38 -47 72 -47
78 0 5 -3 10 -8 10 -4 0 -12 9 -17 20 -6 11 -37 64 -70 117 -81 133 -92 152
-113 193 -9 19 -20 37 -23 40 -3 3 -12 19 -21 35 -134 266 -176 351 -227 468
-34 76 -61 141 -61 145 0 5 -9 27 -20 50 -11 22 -20 48 -20 56 0 8 -4 17 -9
20 -4 3 -18 36 -30 73 -12 37 -26 77 -31 88 -5 11 -14 38 -21 60 -6 22 -16 46
-22 53 -5 6 -7 12 -3 12 3 0 -1 17 -9 38 -18 47 -65 205 -71 239 -3 14 -10 36
-16 47 -6 12 -11 22 -10 24 1 1 2 3 1 5 0 1 -3 13 -5 27 -3 14 -10 43 -16 65
-6 22 -12 45 -13 50 -1 6 -3 12 -4 15 -2 3 -4 14 -6 25 -3 19 -41 200 -50 236
-2 9 -6 32 -9 50 -3 19 -8 48 -12 64 -3 17 -7 44 -8 60 -2 17 -6 41 -10 55 -3
14 -9 45 -11 70 -3 25 -8 61 -10 80 -3 19 -7 51 -9 70 -3 19 -7 55 -10 80 -4
25 -8 77 -11 115 -3 39 -8 115 -12 170 -10 134 -9 640 0 790 8 119 10 140 21
245 4 30 9 78 11 105 3 28 8 64 12 80 3 17 7 44 8 60 3 43 28 195 51 310 2 11
6 31 9 45 3 14 7 36 10 50 4 14 8 39 11 55 3 17 12 57 21 90 15 60 19 76 28
116 2 12 12 47 21 78 9 31 17 63 19 71 9 46 125 399 142 433 7 15 11 27 9 27
-4 0 28 86 54 145 4 11 23 56 40 100 39 97 56 134 133 295 33 69 61 127 62
130 1 5 18 37 68 130 63 118 91 166 108 192 11 14 19 29 19 32 0 8 103 174
157 254 24 35 43 67 43 73 0 5 5 9 10 9 6 0 10 4 10 10 0 5 6 18 14 27 8 10
52 70 97 133 45 63 86 117 90 118 5 2 9 8 9 13 0 5 8 17 18 28 9 10 28 33 42
52 25 33 179 220 190 229 3 3 43 48 90 100 144 162 441 452 570 556 19 16 37
31 40 34 34 38 356 283 500 381 52 35 97 66 100 69 13 13 91 60 100 60 5 0 10
4 10 8 0 5 12 15 28 23 15 7 50 28 78 46 28 17 66 40 86 51 19 11 46 26 59 34
13 7 26 15 29 18 15 15 409 211 530 264 47 21 99 44 115 51 93 41 156 65 170
65 8 0 15 5 15 10 0 6 6 10 13 10 7 0 68 20 135 45 67 25 130 47 139 49 10 1
25 6 33 9 8 3 53 18 100 32 47 15 96 30 110 35 14 5 36 12 50 14 14 3 77 19
140 36 110 28 371 87 435 96 17 3 53 9 80 14 59 11 114 19 170 26 22 3 51 7
65 10 25 5 71 9 190 19 36 4 72 8 80 10 98 26 1012 26 1170 0 14 -2 54 -7 90
-10 36 -3 82 -8 103 -11 31 -4 37 -2 37 13 1 31 11 95 26 168 9 39 16 75 18
82 1 7 5 16 9 19 9 10 9 44 0 45 -5 0 -21 2 -38 3 -16 2 -57 6 -90 10 -82 10
-202 20 -390 31 -104 7 -532 14 -538 9z m2109 -12719 c179 -105 145 -383 -54
-441 -79 -23 -142 -13 -214 34 -31 20 -77 78 -84 105 -1 4 -2 8 -4 10 -4 5
-11 43 -14 77 -10 108 84 226 195 245 18 3 35 7 37 9 8 9 101 -17 138 -39z"/>
<path d="M5003 10605 c-29 -7 -53 -10 -53 -7 0 3 -5 1 -12 -6 -7 -7 -19 -12
-27 -12 -19 0 -145 -63 -165 -82 -8 -7 -33 -28 -56 -47 -95 -79 -186 -237
-208 -361 -11 -66 -10 -211 3 -267 17 -72 65 -193 77 -193 4 0 8 -7 8 -15 0
-8 5 -15 10 -15 6 0 10 -7 10 -15 0 -8 4 -15 9 -15 19 0 19 -44 0 -68 -10 -14
-19 -31 -19 -38 0 -8 -3 -14 -7 -14 -5 0 -13 -10 -19 -23 -26 -53 -127 -243
-133 -252 -4 -5 -28 -57 -54 -115 -73 -165 -80 -184 -83 -199 -1 -7 -7 -18
-13 -24 -6 -6 -11 -19 -11 -29 0 -10 -4 -18 -8 -18 -5 0 -9 -6 -9 -13 0 -7
-13 -46 -29 -87 -15 -41 -29 -77 -29 -80 -1 -3 -16 -50 -34 -105 -18 -55 -34
-107 -36 -115 -2 -8 -4 -17 -6 -20 -1 -3 -3 -9 -4 -15 -1 -5 -5 -17 -8 -25 -5
-12 -21 -70 -42 -150 -11 -46 -38 -158 -41 -180 -3 -14 -12 -59 -20 -100 -9
-41 -18 -86 -20 -100 -2 -14 -7 -41 -10 -60 -4 -19 -8 -48 -10 -65 -1 -16 -5
-41 -8 -55 -5 -24 -14 -100 -21 -190 -3 -25 -7 -72 -10 -105 -23 -248 -19
-630 10 -925 12 -119 15 -148 30 -235 3 -16 8 -52 11 -80 3 -27 8 -53 10 -56
3 -5 12 -49 19 -94 2 -11 8 -42 14 -70 6 -27 13 -63 15 -78 3 -16 10 -43 15
-60 6 -18 13 -43 15 -57 6 -30 20 -83 34 -127 6 -18 8 -33 5 -33 -3 0 -1 -6 5
-13 6 -7 13 -24 15 -37 2 -14 7 -32 10 -40 3 -8 18 -53 33 -100 14 -47 31 -91
37 -97 5 -7 6 -13 2 -13 -4 0 -2 -7 5 -15 7 -8 10 -15 7 -15 -3 0 6 -28 20
-63 13 -34 26 -66 27 -72 1 -5 7 -20 14 -31 6 -12 8 -24 5 -28 -3 -3 -1 -6 5
-6 7 0 12 -6 12 -12 0 -28 164 -377 229 -486 17 -29 31 -59 31 -66 0 -8 7 -17
16 -20 9 -4 14 -9 11 -12 -3 -4 5 -23 18 -43 14 -19 25 -41 25 -48 0 -7 -20
-43 -44 -80 -37 -57 -58 -100 -61 -123 0 -3 -3 -9 -6 -15 -27 -45 -42 -226
-25 -320 21 -124 89 -255 178 -345 82 -83 220 -167 288 -175 8 -1 24 -6 35
-11 38 -17 265 -11 325 9 152 50 244 114 353 246 41 51 90 165 114 266 16 71
5 244 -21 320 -20 59 -36 93 -75 155 -38 61 -164 190 -187 190 -8 0 -14 5 -14
10 0 6 -6 10 -14 10 -8 0 -16 3 -18 8 -5 12 -138 61 -193 72 -83 15 -257 4
-322 -21 -24 -9 -30 -7 -48 18 -39 53 -257 487 -254 506 0 1 -13 31 -29 67
-27 59 -131 335 -137 363 -1 7 -5 19 -8 27 -18 48 -85 289 -93 339 -3 14 -9
42 -14 62 -10 36 -29 127 -35 164 -3 20 -11 61 -19 101 -4 18 -10 61 -21 149
-19 143 -20 153 -32 305 -9 123 -9 539 0 655 12 141 17 197 22 235 3 19 7 55
10 80 4 42 7 62 20 130 3 14 8 43 11 65 3 22 10 60 16 85 6 25 12 54 13 65 6
40 56 239 81 323 14 48 27 92 28 97 2 6 5 17 9 25 3 8 13 40 22 70 45 146 163
436 245 600 77 154 141 274 149 280 4 3 13 15 20 28 9 17 16 20 30 13 23 -13
60 -20 141 -30 296 -35 583 149 685 439 8 22 14 42 15 45 0 3 0 6 1 8 14 44
19 223 7 292 -39 226 -240 439 -473 501 -77 20 -225 25 -292 9z m223 -430 c64
-32 106 -82 128 -154 17 -60 14 -106 -14 -166 -64 -138 -228 -184 -355 -101
-30 20 -83 75 -86 89 -3 13 -6 27 -9 32 -1 3 -3 8 -4 13 -1 4 -4 12 -7 17 -4
9 -4 100 1 100 1 0 3 10 6 22 6 35 42 87 80 119 81 64 167 74 260 29z m-18
-6087 c6 -6 12 -7 12 -4 0 8 54 -28 81 -54 10 -8 28 -35 40 -60 29 -54 33
-168 9 -216 -23 -47 -94 -110 -142 -125 -155 -52 -306 47 -323 212 -3 29 -7
55 -10 57 -9 10 49 107 83 140 38 36 70 52 112 59 13 2 26 6 28 8 7 7 98 -7
110 -17z"/>
</g>
</svg>
